<?xml version="1.0" standalone="no"?>
<!DOCTYPE svg PUBLIC "-//W3C//DTD SVG 20010904//EN"
 "http://www.w3.org/TR/2001/REC-SVG-20010904/DTD/svg10.dtd">
<svg version="1.0" xmlns="http://www.w3.org/2000/svg"
 width="807.000000pt" height="320.000000pt" viewBox="0 0 807.000000 320.000000"
 preserveAspectRatio="xMidYMid meet">
<metadata>
Created by potrace 1.15, written by Peter Selinger 2001-2017
</metadata>
<g transform="translate(0.000000,320.000000) scale(0.100000,-0.100000)"
fill="#800" stroke="none">
<path d="M4420 3150 c-139 -10 -268 -29 -276 -41 -3 -5 25 -23 63 -40 113 -51
267 -128 287 -144 36 -27 11 -25 -65 6 -284 116 -599 193 -794 193 -100 0
-127 -4 -165 -21 -63 -29 -80 -52 -93 -127 -39 -227 124 -602 373 -860 151
-158 319 -275 502 -352 46 -19 97 -41 113 -50 l30 -14 -35 6 c-368 63 -766
370 -949 732 -66 130 -120 324 -121 429 0 77 0 77 -280 70 -238 -7 -376 -22
-590 -68 -578 -124 -1218 -425 -1825 -857 -196 -140 -513 -396 -524 -424 -4
-13 54 -1 189 37 333 95 729 131 1015 91 141 -19 292 -49 390 -78 76 -21 303
-136 400 -201 61 -41 249 -224 318 -310 21 -26 43 -45 48 -42 5 4 9 123 9 286
l0 279 329 0 329 0 35 -62 c35 -64 71 -130 187 -344 72 -133 95 -172 102 -164
4 4 170 309 267 490 19 36 39 68 45 72 6 5 162 7 346 5 l335 -2 3 -552 c1
-304 5 -553 9 -553 23 0 105 73 134 118 89 142 292 260 524 306 86 16 174 21
553 32 133 4 245 10 247 14 2 4 -14 48 -36 99 -72 163 -41 194 257 256 71 14
156 35 189 45 33 11 298 67 589 125 621 124 772 161 867 211 89 47 117 80 189
223 100 200 120 283 79 335 -28 35 -90 66 -134 66 -33 0 -37 -3 -60 -55 -13
-31 -32 -80 -41 -110 -10 -30 -21 -55 -26 -55 -11 0 -1 67 23 156 10 38 19 76
19 83 0 14 -49 37 -296 136 -305 123 -894 302 -1284 389 -63 14 -176 39 -250
56 -149 34 -600 115 -695 125 -33 4 -109 13 -170 20 -250 31 -532 45 -685 35z
m-619 -345 c142 -53 238 -101 344 -170 82 -55 220 -174 211 -183 -3 -2 -44 12
-91 33 -47 21 -88 36 -91 33 -3 -4 19 -43 50 -89 30 -46 54 -85 52 -86 -2 -2
-32 12 -67 30 -70 38 -137 62 -146 53 -3 -3 28 -45 68 -93 129 -152 130 -155
65 -128 -21 9 -47 15 -59 13 -18 -3 -10 -17 62 -112 45 -59 80 -110 77 -113
-8 -8 -69 31 -191 122 -259 193 -479 485 -493 652 -8 110 8 113 209 38z m1979
-204 c213 -37 652 -132 695 -150 17 -8 13 -12 -35 -35 -49 -23 -73 -26 -235
-34 -350 -17 -503 19 -588 137 -34 47 -41 51 -126 77 -191 57 -28 60 289 5z
m618 -866 c-3 -3 -86 -30 -184 -60 -242 -74 -279 -88 -427 -163 -163 -82 -182
-106 -181 -221 0 -42 4 -94 8 -115 7 -34 6 -38 -7 -28 -27 23 -68 130 -74 197
l-6 65 41 38 c22 21 79 58 125 84 138 76 560 205 676 207 19 1 32 -1 29 -4z"/>
<path d="M3110 483 l0 -443 308 0 c226 0 311 3 320 12 14 14 18 858 4 858 -8
0 -97 -133 -257 -382 -28 -43 -54 -78 -60 -78 -5 0 -48 60 -95 133 -46 72
-115 179 -152 237 l-68 105 0 -442z"/>
</g>
</svg>
